<svg xmlns="http://www.w3.org/2000/svg" viewBox="0 0 100 100"><style type="text/css">  
	.st0{fill:none;}
	.st1{fill:#50285F;}
	.st2{fill:#50285F;}
</style>
<path class="st1" d="M66.9 53.6C66.9 53.6 66.9 53.7 66.9 53.7L66.9 66.5C66.9 67.2 66.3 67.8 65.6 67.8 65.5 67.8 65.5 67.8 65.5 67.8L53.6 67.8C53.6 67.8 53.6 67.8 53.6 67.8L46.1 67.8C45.1 67.8 44.3 66.9 44.3 65.9 44.3 64.9 45.1 64 46.1 64L46.1 64 61.5 64C61.5 64 61.6 64 61.6 64 62.5 64 63.3 63.2 63.4 62.3L63.4 45.8 63.4 45.8C63.4 44.7 64.2 43.9 65.1 43.9 66.1 43.9 66.9 44.7 66.9 45.8L66.9 53.6ZM36.2 57.3C36.2 56.2 37 55.4 38 55.4L53.4 55.4C53.4 55.4 53.4 55.4 53.4 55.4 54.4 55.4 55.1 54.6 55.2 53.6L55.2 37.1 55.2 37.1C55.2 36.1 56 35.2 57 35.2 58 35.2 58.8 36.1 58.8 37.1L58.8 45C58.8 45 58.8 45 58.8 45.1L58.8 57.8C58.7 58.6 58.1 59.2 57.4 59.2 57.4 59.2 57.4 59.2 57.4 59.2L45.5 59.2 45.4 59.2C45.4 59.2 45.4 59.2 45.4 59.2L38 59.2C37 59.2 36.2 58.3 36.2 57.3ZM34.8 35.7C33.8 35.7 33 34.8 33 33.8L33 25.9 33 25.8 33 13.1C33.1 12.3 33.7 11.7 34.4 11.7 34.4 11.7 34.4 11.7 34.4 11.7L53.8 11.7C54.8 11.7 55.6 12.6 55.6 13.6 55.6 14.7 54.8 15.5 53.8 15.5L37.3 15.5C38.4 15.5 38.4 15.5 38.4 15.5 37.4 15.5 36.7 16.3 36.6 17.3L36.6 33.8C36.6 34.8 35.8 35.7 34.8 35.7ZM63.8 22.2C63.8 23.3 62.9 24.1 62 24.1L46.5 24.1C46.5 24.1 46.5 24.1 46.5 24.1 45.6 24.1 44.8 24.9 44.7 25.9L44.7 42.4C44.7 43.4 43.9 44.2 42.9 44.2 41.9 44.2 41.1 43.4 41.1 42.4L41.1 34.5C41.1 34.5 41.1 34.5 41.1 34.4L41.1 21.7C41.2 20.9 41.8 20.3 42.5 20.3 42.5 20.3 42.5 20.3 42.5 20.3L62 20.3C63 20.3 63.8 21.2 63.8 22.2ZM52 4L32.5 4C27.4 4 23.3 8.3 23.2 13.7L23.2 13.7 23.2 49.2C23.2 63.7 34.3 75.5 48 75.5L67.8 75.5 67.9 75.5C72.8 75.3 76.8 71 76.8 65.7L76.9 65.7 76.9 30.3C76.9 15.8 65.7 4 52 4"/>
<path class="st2" d="M12.6 81.3C12.6 81.3 12.4 81.3 12.1 81.3 11.8 81.3 11.4 81.4 11 81.6 10.7 81.9 10.5 82.3 10.5 82.8 10.5 83.3 10.7 83.7 11 83.9 11.4 84.2 12.3 84.5 13.6 84.8 14.9 85.1 15.8 85.6 16.5 86.1 17.1 86.7 17.5 87.5 17.5 88.6 17.5 89.7 17.1 90.6 16.2 91.3 15.4 92 14.3 92.3 13 92.3 11 92.3 9.3 91.6 7.7 90.3L9.1 88.7C10.3 89.8 11.7 90.3 13 90.3 13.7 90.3 14.3 90.2 14.7 89.9 15.1 89.6 15.3 89.2 15.3 88.7 15.3 88.2 15.1 87.9 14.7 87.6 14.3 87.3 13.7 87.1 12.7 86.9 11.8 86.6 11.1 86.4 10.6 86.3 10.2 86.1 9.7 85.8 9.4 85.5 8.6 85 8.2 84.1 8.2 82.9 8.2 81.8 8.7 80.9 9.5 80.2 10.4 79.6 11.4 79.3 12.6 79.3 13.5 79.3 14.3 79.4 15 79.7 15.8 80 16.5 80.3 17.1 80.8L16 82.4C15.6 82.1 15.1 81.8 14.4 81.6 13.8 81.4 13.2 81.3 12.6 81.3ZM24.1 92.3C22.7 92.3 21.6 91.9 20.6 91 19.7 90.1 19.2 88.9 19.2 87.4 19.2 85.9 19.7 84.8 20.7 83.8 21.7 82.9 22.9 82.5 24.3 82.5 25.8 82.5 27 83 28 84L26.8 85.4C26 84.7 25.2 84.3 24.3 84.3 23.5 84.3 22.7 84.6 22.1 85.2 21.5 85.7 21.2 86.5 21.2 87.3 21.2 88.2 21.5 89 22.1 89.6 22.7 90.2 23.5 90.5 24.4 90.5 25.3 90.5 26.1 90.1 26.9 89.3L28.1 90.6C26.9 91.7 25.6 92.3 24.1 92.3ZM37.9 92.2L36 92.2 36 90.9C35.2 91.8 34.2 92.3 32.8 92.3 31.8 92.3 31 92 30.4 91.5 29.7 90.9 29.4 90.2 29.4 89.2 29.4 88.3 29.7 87.6 30.4 87.1 31.1 86.6 32.1 86.4 33.3 86.4L35.9 86.4 35.9 86C35.9 84.8 35.2 84.1 33.7 84.1 32.9 84.1 31.9 84.5 31 85.1L30.1 83.9C31.2 82.9 32.6 82.5 34 82.5 35.2 82.5 36.1 82.7 36.8 83.3 37.5 83.9 37.9 84.8 37.9 86L37.9 92.2M35.9 88.6L35.9 87.8 33.6 87.8C32.1 87.8 31.4 88.3 31.4 89.2 31.4 89.6 31.6 90 31.9 90.2 32.3 90.5 32.8 90.6 33.5 90.6 34.1 90.6 34.7 90.4 35.1 90.1 35.6 89.7 35.9 89.2 35.9 88.6ZM42.7 92.2L40.7 92.2 40.7 78.8 42.7 78.8 42.7 92.2ZM54.5 88.3L47 88.3C47.1 89 47.4 89.5 48 90 48.6 90.4 49.2 90.6 50 90.6 51.2 90.6 52.1 90.2 52.7 89.5L53.9 90.7C52.8 91.8 51.5 92.3 49.8 92.3 48.5 92.3 47.3 91.9 46.4 91 45.5 90.1 45 88.9 45 87.4 45 85.9 45.5 84.7 46.4 83.8 47.4 82.9 48.5 82.5 49.8 82.5 51.1 82.5 52.2 82.9 53.1 83.6 54.1 84.4 54.5 85.5 54.5 86.9L54.5 88.3M47 86.7L52.5 86.7C52.5 85.9 52.2 85.3 51.7 84.8 51.2 84.4 50.6 84.2 49.9 84.2 49.1 84.2 48.5 84.4 47.9 84.9 47.3 85.3 47 85.9 47 86.7ZM61.2 92.2L58.9 92.2 55.6 82.6 57.7 82.6 60.1 89.8 62.4 82.6 64.5 82.6 66.9 89.8 69.3 82.6 71.4 82.6 68.1 92.2 65.8 92.2 63.5 85.6 61.2 92.2ZM80.8 92.2L79 92.2 79 90.9C78.2 91.8 77.1 92.3 75.8 92.3 74.8 92.3 74 92 73.3 91.5 72.7 90.9 72.3 90.2 72.3 89.2 72.3 88.3 72.7 87.6 73.4 87.1 74.1 86.6 75 86.4 76.2 86.4L78.8 86.4 78.8 86C78.8 84.8 78.1 84.1 76.7 84.1 75.8 84.1 74.9 84.5 73.9 85.1L73 83.9C74.2 82.9 75.5 82.5 77 82.5 78.1 82.5 79 82.7 79.7 83.3 80.5 83.9 80.8 84.8 80.8 86L80.8 92.2M78.8 88.6L78.8 87.8 76.5 87.8C75.1 87.8 74.3 88.3 74.3 89.2 74.3 89.6 74.5 90 74.9 90.2 75.2 90.5 75.8 90.6 76.4 90.6 77 90.6 77.6 90.4 78.1 90.1 78.6 89.7 78.8 89.2 78.8 88.6ZM84.7 96C83.8 96 83.1 95.7 82.3 95L83.3 93.4C83.7 93.8 84.1 94 84.6 94 85 94 85.4 93.8 85.7 93.5 85.9 93.2 86.1 92.8 86.1 92.5 86.1 92.3 84.8 89 82.2 82.6L84.4 82.6 87.2 89.7 90.1 82.6 92.3 82.6 87.6 94C87.3 94.6 86.9 95.1 86.4 95.5 85.9 95.8 85.3 96 84.7 96Z"/>
</svg>